<svg aria-hidden="true" style="width:0;height:0;position:absolute;overflow:hidden" xmlns="http://www.w3.org/2000/svg"><defs><symbol id="film" viewBox="0 0 30 28"><path d="M6 25v-2c0-.547-.453-1-1-1H3c-.547 0-1 .453-1 1v2c0 .547.453 1 1 1h2c.547 0 1-.453 1-1zm0-6v-2c0-.547-.453-1-1-1H3c-.547 0-1 .453-1 1v2c0 .547.453 1 1 1h2c.547 0 1-.453 1-1zm0-6v-2c0-.547-.453-1-1-1H3c-.547 0-1 .453-1 1v2c0 .547.453 1 1 1h2c.547 0 1-.453 1-1zm16 12v-8c0-.547-.453-1-1-1H9c-.547 0-1 .453-1 1v8c0 .547.453 1 1 1h12c.547 0 1-.453 1-1zM6 7V5c0-.547-.453-1-1-1H3c-.547 0-1 .453-1 1v2c0 .547.453 1 1 1h2c.547 0 1-.453 1-1zm22 18v-2c0-.547-.453-1-1-1h-2c-.547 0-1 .453-1 1v2c0 .547.453 1 1 1h2c.547 0 1-.453 1-1zm-6-12V5c0-.547-.453-1-1-1H9c-.547 0-1 .453-1 1v8c0 .547.453 1 1 1h12c.547 0 1-.453 1-1zm6 6v-2c0-.547-.453-1-1-1h-2c-.547 0-1 .453-1 1v2c0 .547.453 1 1 1h2c.547 0 1-.453 1-1zm0-6v-2c0-.547-.453-1-1-1h-2c-.547 0-1 .453-1 1v2c0 .547.453 1 1 1h2c.547 0 1-.453 1-1zm0-6V5c0-.547-.453-1-1-1h-2c-.547 0-1 .453-1 1v2c0 .547.453 1 1 1h2c.547 0 1-.453 1-1zm2-2.5v21c0 1.375-1.125 2.5-2.5 2.5h-25A2.507 2.507 0 0 1 0 25.5v-21C0 3.125 1.125 2 2.5 2h25C28.875 2 30 3.125 30 4.5z"/></symbol><symbol id="icon-film" viewBox="0 0 32 32"><path fill="none" stroke="#fff" style="stroke:var(--color1,#fff)" stroke-linejoin="round" stroke-linecap="round" stroke-width="2.667" d="M26.427 2.667H5.574a2.907 2.907 0 0 0-2.907 2.907v20.853a2.907 2.907 0 0 0 2.907 2.907h20.853a2.907 2.907 0 0 0 2.907-2.907V5.574a2.907 2.907 0 0 0-2.907-2.907zM9.333 2.667v26.667M22.667 2.667v26.667M2.667 16h26.667M2.667 9.333h6.667M2.667 22.667h6.667M22.667 22.667h6.667M22.667 9.333h6.667"/></symbol><symbol id="icon-search-2" viewBox="0 0 32 32"><path fill="none" stroke="#fff" style="stroke:var(--color2,#fff)" stroke-linejoin="round" stroke-linecap="round" stroke-width="2.667" d="M14.667 25.333c5.891 0 10.667-4.776 10.667-10.667S20.558 3.999 14.667 3.999 4 8.775 4 14.666s4.776 10.667 10.667 10.667zM28 28.001l-5.8-5.8"/></symbol><symbol id="icon-user" viewBox="0 0 32 32"><path d="M31.11 28.336c-.201-.133-3.848-2.525-9.273-3.699 1.99-2.521 3.268-5.912 3.811-8.169.754-3.128.461-9.248-2.543-13.062C21.349 1.177 18.892 0 16 0s-5.349 1.178-7.104 3.406C5.892 7.219 5.6 13.339 6.353 16.467c.543 2.257 1.82 5.648 3.811 8.169-5.425 1.174-9.072 3.566-9.272 3.699A1.999 1.999 0 0 0 2 32h28a2.001 2.001 0 0 0 1.11-3.664zm-10.843-4.938-.326.414c-2.385 2.74-5.495 2.74-7.879 0l-.327-.414c-2.785-3.529-4.167-8.197-3.572-12.65C8.708 6.469 11.16 2 16 2s7.293 4.47 7.838 8.749c.593 4.455-.784 9.118-3.571 12.649zM2 30c.138-.092 3.526-2.314 8.586-3.408l2.484-.537c.887.582 1.86.945 2.93.945 1.071 0 2.043-.363 2.93-.945l2.484.537C26.434 27.678 29.81 29.875 30 30H2z"/></symbol><symbol id="icon-tux" viewBox="0 0 32 32"><path d="M17.739 23.029c-2.561 1.191-4.942 1.179-6.542 1.063-1.908-.138-3.442-.66-4.117-1.117a.909.909 0 1 0-1.019 1.505c1.084.734 3.002 1.28 5.005 1.424.34.024.712.04 1.114.04 1.743 0 3.957-.166 6.326-1.268a.91.91 0 0 0-.767-1.648zm10.103-1.347c.087-7.896.899-22.819-14.218-21.613C-1.301 1.27 2.656 17.037 2.434 22.317 2.237 25.11 1.31 28.525 0 32h4.034c.415-1.473.72-2.929.851-4.317.243.17.503.334.781.491.452.266.84.62 1.251.995.961.876 2.05 1.868 4.179 1.992.143.008.287.012.427.012 2.153 0 3.625-.942 4.809-1.699.567-.363 1.057-.676 1.518-.827 1.31-.41 2.454-1.072 3.309-1.914a5.64 5.64 0 0 0 .374-.405c.476 1.746 1.129 3.711 1.853 5.672H32c-2.068-3.195-4.201-6.324-4.158-10.318zM3.878 17.386v-.001c-.148-2.577 1.085-4.745 2.754-4.842s3.142 1.913 3.291 4.49v.001c.008.139.011.276.012.413a6.46 6.46 0 0 0-1.434.551l-.005-.057v-.001c-.143-1.463-.924-2.567-1.745-2.467s-1.371 1.367-1.228 2.83v.001c.062.638.246 1.207.501 1.639-.064.05-.243.182-.45.333l-.572.42c-.621-.815-1.047-1.987-1.123-3.309zm16.911 6.37c-.059 1.362-1.841 2.643-3.487 3.158l-.009.003c-.684.222-1.295.613-1.941 1.026-1.085.695-2.208 1.413-3.829 1.413-.106 0-.215-.003-.323-.009-1.485-.087-2.179-.72-3.059-1.521-.464-.423-.943-.86-1.562-1.223l-.013-.008c-1.335-.753-2.163-1.69-2.216-2.506-.026-.406.154-.757.537-1.044.832-.624 1.39-1.032 1.759-1.302.41-.3.533-.39.625-.477.066-.062.136-.131.213-.205.764-.743 2.043-1.986 4.005-1.986 1.2 0 2.528.462 3.943 1.372.666.434 1.246.634 1.981.887.505.174 1.077.372 1.843.7l.012.005c.715.294 1.559.83 1.521 1.717zm-.394-3.2a5.876 5.876 0 0 0-.43-.196 25.213 25.213 0 0 0-1.704-.656 4.168 4.168 0 0 0 .426-1.789v-.001c.035-1.637-.79-2.966-1.844-2.968s-1.936 1.322-1.971 2.959v.001l-.001.16a9.182 9.182 0 0 0-1.911-.649 10.966 10.966 0 0 1-.008-.185v-.002c-.061-2.982 1.769-5.45 4.086-5.513s4.245 2.303 4.305 5.285v.002c.027 1.348-.333 2.59-.949 3.552z"/></symbol><symbol id="eye" viewBox="0 0 32 32"><path d="M16 6C9.021 6 2.972 10.064 0 16c2.972 5.936 9.021 10 16 10s13.027-4.064 16-10c-2.972-5.936-9.021-10-16-10zm7.889 5.303A15.212 15.212 0 0 1 28.559 16a15.223 15.223 0 0 1-4.67 4.697C21.527 22.204 18.799 23 16 23s-5.527-.796-7.889-2.303A15.212 15.212 0 0 1 3.441 16a15.223 15.223 0 0 1 5.041-4.925 8 8 0 1 0 15.036 0c.124.074.248.15.371.228zM16 13a3 3 0 1 1-6 0 3 3 0 0 1 6 0z"/></symbol><symbol id="eye-blocked" viewBox="0 0 32 32"><path d="M29.561.439a1.5 1.5 0 0 0-2.121 0l-6.318 6.318A17.626 17.626 0 0 0 16 6C9.021 6 2.972 10.064 0 16a18.323 18.323 0 0 0 5.407 6.472L.439 27.44a1.5 1.5 0 1 0 2.122 2.121l27-27a1.5 1.5 0 0 0 0-2.121zM13 10a3 3 0 0 1 2.841 2.037l-3.804 3.804A3 3 0 0 1 13 10zm-9.559 6a15.223 15.223 0 0 1 5.041-4.925A7.985 7.985 0 0 0 8 13.812c0 1.715.54 3.304 1.459 4.607l-1.904 1.904A15.219 15.219 0 0 1 3.441 16zM24 13.813c0-.849-.133-1.667-.378-2.434L13.566 21.435a8 8 0 0 0 10.435-7.622z"/><path d="M25.938 9.062 23.77 11.23l.118.074a15.212 15.212 0 0 1 4.67 4.697 15.223 15.223 0 0 1-4.67 4.697 14.642 14.642 0 0 1-11.45 1.864l-2.403 2.403a17.587 17.587 0 0 0 5.964 1.036c6.978 0 13.027-4.064 16-10a18.292 18.292 0 0 0-6.062-6.938z"/></symbol><symbol id="close-btn" viewBox="0 0 32 32"><path d="M22.857 14.476V12.19h2.286V9.904h2.286V7.618h2.286V5.332h2.286V2.284h-2.286V-.002h-3.048v2.286h-2.286V4.57h-2.286v2.286h-2.286v2.286h-2.286v2.286h-3.048V9.142h-2.286V6.856H9.903V4.57H7.617V2.284H5.331V-.002H2.283v2.286H-.003v3.048h2.286v2.286h2.286v2.286h2.286v2.286h2.286v2.286h2.286v3.048H9.141v2.286H6.855v2.286H4.569v2.286H2.283v2.286H-.003v3.048h2.286v2.286h3.048v-2.286h2.286V27.43h2.286v-2.286h2.286v-2.286h2.286v-2.286h3.048v2.286h2.286v2.286h2.286v2.286h2.286v2.286h2.286v2.286h3.048v-2.286h2.286v-3.048h-2.286v-2.286h-2.286v-2.286h-2.286V19.81h-2.286v-2.286h-2.286v-3.048z"/></symbol><symbol id="icon-fire" viewBox="0 0 32 32"><path d="M10.031 32c-2.133-4.438-.997-6.981.642-9.376 1.795-2.624 2.258-5.221 2.258-5.221s1.411 1.834.847 4.703c2.493-2.775 2.963-7.196 2.587-8.889C22 17.155 24.408 25.681 21.163 32c17.262-9.767 4.294-24.38 2.036-26.027.753 1.646.895 4.433-.625 5.785C20.001 1.999 13.637-.001 13.637-.001c.753 5.033-2.728 10.536-6.084 14.648-.118-2.007-.243-3.392-1.298-5.312-.237 3.646-3.023 6.617-3.777 10.27-1.022 4.946.765 8.568 7.555 12.394z"/></symbol><symbol id="icon-linkedin" viewBox="0 0 32 32"><path d="M12 12h5.535v2.837h.079c.77-1.381 2.655-2.837 5.464-2.837C28.92 12 30 15.637 30 20.367V30h-5.769v-8.54c0-2.037-.042-4.657-3.001-4.657-3.005 0-3.463 2.218-3.463 4.509V30H12V12zM2 12h6v18H2V12zm6-5a3 3 0 1 1-6 0 3 3 0 0 1 6 0z"/></symbol><symbol id="icon-instagram" viewBox="0 0 32 32"><path d="M16 2.881c4.275 0 4.781.019 6.462.094 1.563.069 2.406.331 2.969.55a4.952 4.952 0 0 1 1.837 1.194 5.015 5.015 0 0 1 1.2 1.838c.219.563.481 1.412.55 2.969.075 1.688.094 2.194.094 6.463s-.019 4.781-.094 6.463c-.069 1.563-.331 2.406-.55 2.969a4.94 4.94 0 0 1-1.194 1.837 5.02 5.02 0 0 1-1.837 1.2c-.563.219-1.413.481-2.969.55-1.688.075-2.194.094-6.463.094s-4.781-.019-6.463-.094c-1.563-.069-2.406-.331-2.969-.55a4.952 4.952 0 0 1-1.838-1.194 5.02 5.02 0 0 1-1.2-1.837c-.219-.563-.481-1.413-.55-2.969-.075-1.688-.094-2.194-.094-6.463s.019-4.781.094-6.463c.069-1.563.331-2.406.55-2.969a4.964 4.964 0 0 1 1.194-1.838 5.015 5.015 0 0 1 1.838-1.2c.563-.219 1.412-.481 2.969-.55 1.681-.075 2.188-.094 6.463-.094zM16 0c-4.344 0-4.887.019-6.594.094-1.7.075-2.869.35-3.881.744-1.056.412-1.95.956-2.837 1.85a7.833 7.833 0 0 0-1.85 2.831C.444 6.538.169 7.7.094 9.4.019 11.113 0 11.656 0 16s.019 4.887.094 6.594c.075 1.7.35 2.869.744 3.881.413 1.056.956 1.95 1.85 2.837a7.82 7.82 0 0 0 2.831 1.844c1.019.394 2.181.669 3.881.744 1.706.075 2.25.094 6.594.094s4.888-.019 6.594-.094c1.7-.075 2.869-.35 3.881-.744 1.05-.406 1.944-.956 2.831-1.844s1.438-1.781 1.844-2.831c.394-1.019.669-2.181.744-3.881.075-1.706.094-2.25.094-6.594s-.019-4.887-.094-6.594c-.075-1.7-.35-2.869-.744-3.881a7.506 7.506 0 0 0-1.831-2.844A7.82 7.82 0 0 0 26.482.843C25.463.449 24.301.174 22.601.099c-1.712-.081-2.256-.1-6.6-.1z"/><path d="M16 7.781c-4.537 0-8.219 3.681-8.219 8.219s3.681 8.219 8.219 8.219 8.219-3.681 8.219-8.219A8.221 8.221 0 0 0 16 7.781zm0 13.55a5.331 5.331 0 1 1 0-10.663 5.331 5.331 0 0 1 0 10.663zM26.462 7.456a1.919 1.919 0 1 1-3.838 0 1.919 1.919 0 0 1 3.838 0z"/></symbol><symbol id="icon-twitter" viewBox="0 0 32 32"><path d="M32 7.075a12.941 12.941 0 0 1-3.769 1.031 6.601 6.601 0 0 0 2.887-3.631 13.21 13.21 0 0 1-4.169 1.594A6.565 6.565 0 0 0 22.155 4a6.563 6.563 0 0 0-6.563 6.563c0 .512.056 1.012.169 1.494A18.635 18.635 0 0 1 2.23 5.195a6.56 6.56 0 0 0-.887 3.3 6.557 6.557 0 0 0 2.919 5.463 6.565 6.565 0 0 1-2.975-.819v.081a6.565 6.565 0 0 0 5.269 6.437 6.574 6.574 0 0 1-2.968.112 6.588 6.588 0 0 0 6.131 4.563 13.17 13.17 0 0 1-9.725 2.719 18.568 18.568 0 0 0 10.069 2.95c12.075 0 18.681-10.006 18.681-18.681 0-.287-.006-.569-.019-.85A13.216 13.216 0 0 0 32 7.076z"/></symbol><symbol id="icon-github" viewBox="0 0 32 32"><path d="M16 .941C7.729.941.941 7.729.941 16c0 7.058 4.953 13.47 11.529 15.059v-4.982c-.652.143-1.251.147-1.915-.049-.89-.263-1.613-.855-2.15-1.759-.342-.577-.949-1.203-1.581-1.157l-.155-1.758c1.368-.117 2.551.833 3.254 2.014.312.525.671.832 1.132.968.446.131.924.068 1.481-.129.14-1.116.651-1.534 1.037-2.122v-.001c-3.922-.585-5.486-2.666-6.106-4.308-.822-2.181-.381-4.905 1.073-6.627.028-.034.079-.121.059-.183-.667-2.014.146-3.679.176-3.856.769.228.894-.229 3.342 1.258l.423.254c.177.105.121.045.298.032a12.77 12.77 0 0 1 3.16-.445 12.84 12.84 0 0 1 3.204.456l.137.014c-.012-.002.037-.009.12-.058 3.057-1.852 2.947-1.247 3.767-1.513.03.177.831 1.87.172 3.858-.089.274 2.65 2.782 1.132 6.809-.62 1.643-2.183 3.724-6.106 4.309v.001c.503.766 1.107 1.174 1.104 2.755v6.219C26.105 29.47 31.057 23.058 31.057 16 31.057 7.729 24.27.941 15.998.941z"/></symbol><symbol id="icon-telegram" viewBox="0 0 40 32"><path d="m16.205 20.751-.635 8.339c.909 0 1.302-.364 1.774-.802l4.261-3.801 8.829 6.035c1.619.842 2.76.399 3.197-1.39l5.797-25.346c.514-2.234-.866-3.108-2.443-2.56L2.92 13.398c-2.325.842-2.29 2.052-.395 2.6l8.709 2.528L31.463 6.712c.952-.588 1.818-.263 1.106.326L16.205 20.751z"/></symbol><symbol id="icon-facebook" viewBox="0 0 16 32"><path d="M14.266 15.97H10.09v15.39H3.763V15.97H.754v-5.409h3.009v-3.5c0-2.503 1.182-6.422 6.384-6.422l4.687.02v5.25h-3.401c-.558 0-1.342.28-1.342 1.474v3.183h4.729l-.553 5.403z"/></symbol><symbol id="icon-location" viewBox="0 0 20 20"><path d="M19.367 18.102 18 14h-1.5l.833 4H2.667l.833-4H2L.632 18.102C.285 19.146.9 20 2 20h16c1.1 0 1.715-.854 1.367-1.898zM15 5A5 5 0 1 0 5 5c0 4.775 5 10 5 10s5-5.225 5-10zm-7.7.06A2.699 2.699 0 0 1 10 2.361a2.699 2.699 0 1 1 0 5.399 2.7 2.7 0 0 1-2.7-2.7z"/></symbol><symbol id="icon-mail" viewBox="0 0 32 32"><path d="M26.667 5.333H5.334A2.663 2.663 0 0 0 2.681 8l-.013 16c0 1.467 1.2 2.667 2.667 2.667h21.333c1.467 0 2.667-1.2 2.667-2.667V8c0-1.467-1.2-2.667-2.667-2.667zM26.133 11l-9.427 5.893a1.346 1.346 0 0 1-1.413 0L5.866 11a1.132 1.132 0 1 1 1.2-1.92l8.933 5.587 8.933-5.587a1.132 1.132 0 1 1 1.2 1.92z"/></symbol><symbol id="icon-person" viewBox="0 0 32 32"><path d="M16 16c2.947 0 5.333-2.387 5.333-5.333S18.946 5.334 16 5.334c-2.947 0-5.333 2.387-5.333 5.333S13.054 16 16 16zm0 2.667c-3.56 0-10.667 1.787-10.667 5.333v1.333c0 .733.6 1.333 1.333 1.333h18.667c.733 0 1.333-.6 1.333-1.333V24c0-3.547-7.107-5.333-10.667-5.333z"/></symbol><symbol id="icon-phone" viewBox="0 0 32 32"><path d="m24.881 19.774-3.268-.373a2.561 2.561 0 0 0-2.11.733l-2.367 2.367a19.357 19.357 0 0 1-8.478-8.478l2.38-2.38a2.561 2.561 0 0 0 .733-2.11l-.373-3.242a2.575 2.575 0 0 0-2.56-2.277H6.612c-1.454 0-2.663 1.209-2.573 2.663.682 10.987 9.469 19.761 20.443 20.443 1.454.09 2.663-1.119 2.663-2.573v-2.226a2.55 2.55 0 0 0-2.264-2.547z"/></symbol><symbol id="icon-check" viewBox="0 0 34 32"><path d="M30.341 3.556v24.889H3.793V3.556h26.548zm0-3.556H3.793C1.707 0 0 1.6 0 3.556v24.889c0 1.956 1.707 3.556 3.793 3.556h26.548c2.086 0 3.793-1.6 3.793-3.556V3.556C34.134 1.6 32.427 0 30.341 0z"/></symbol><symbol id="icon-error" viewBox="0 0 512 512"><path d="M256 0C114.6 0 0 114.6 0 256s114.6 256 256 256 256-114.6 256-256S397.4 0 256 0zm-24 152c0-13.2 10.8-24 24-24s24 10.75 24 24v128c0 13.25-10.75 24-24 24s-24-10.7-24-24V152zm24 248c-17.36 0-31.44-14.08-31.44-31.44s14.07-31.44 31.44-31.44 31.44 14.08 31.44 31.44C287.4 385.9 273.4 400 256 400z"/></symbol><symbol id="icon-warning" viewBox="0 0 512 512"><path d="M506.3 417 293 53c-16.33-28-57.54-28-73.98 0L5.82 417c-16.41 27.9 4.029 63 36.92 63h426.6c32.76 0 53.26-35 36.96-63zM232 168c0-13.25 10.75-24 24-24s24 10.8 24 24v128c0 13.25-10.75 24-23.1 24S232 309.3 232 296V168zm24 248c-17.36 0-31.44-14.08-31.44-31.44s14.07-31.44 31.44-31.44 31.44 14.08 31.44 31.44C287.4 401.9 273.4 416 256 416z"/></symbol><symbol id="icon-close" viewBox="0 0 32 32"><path d="M31.708 25.708 22 16l9.708-9.708a1 1 0 0 0 0-1.414L27.122.292a1 1 0 0 0-1.414-.001L16 9.999 6.292.291a.998.998 0 0 0-1.414.001L.292 4.878a1 1 0 0 0 0 1.414L10 16 .292 25.708a.999.999 0 0 0 0 1.414l4.586 4.586a1 1 0 0 0 1.414 0L16 22l9.708 9.708a1 1 0 0 0 1.414 0l4.586-4.586a.999.999 0 0 0 0-1.414z"/></symbol><symbol id="icon-close-mobile" viewBox="0 0 32 32"><path fill="none" stroke="#fff" style="stroke:var(--color1,#fff)" stroke-width="2" d="m2.518 2 26.963 28M2 29.481 30 2.518"/></symbol><symbol id="icon-Vector" viewBox="0 0 26 32"><path fill="none" stroke="#d41443" style="stroke:var(--color1,#d41443)" stroke-linejoin="round" stroke-linecap="round" stroke-width="6.4" d="M3.542 3.2 20.367 16 3.542 28.8"/></symbol><symbol id="icon-arrow-up" viewBox="0 0 32 32"><path d="m27.414 12.586-10-10a2 2 0 0 0-2.828 0l-10 10a2 2 0 1 0 2.828 2.828L14 8.828V28a2 2 0 1 0 4 0V8.828l6.586 6.586c.39.39.902.586 1.414.586s1.024-.195 1.414-.586a2 2 0 0 0 0-2.828z"/></symbol><symbol id="icon-Group-heart" viewBox="0 0 34 32"><path d="m17.231 31.705-2.412-2.412C5.859 21.367.001 16.025.001 9.478.001 4.136 4.136.001 9.478.001c2.929 0 5.858 1.378 7.754 3.618 1.895-2.24 4.825-3.618 7.754-3.618 5.342 0 9.477 4.135 9.477 9.477 0 6.548-5.858 11.889-14.818 19.815l-2.412 2.412z"/></symbol><symbol id="icon-app-store" viewBox="0 0 96 32"><path fill="#a6a6a6" d="M88.108 0H7.628c-.293 0-.583 0-.876.002-.245.002-.488.006-.735.01-.571.007-1.125.058-1.666.15l.063-.009a5.324 5.324 0 0 0-1.551.516l.03-.014a5.18 5.18 0 0 0-1.295.943c-.373.37-.687.798-.929 1.269l-.013.028A5.172 5.172 0 0 0 .16 4.386l-.004.031a10.005 10.005 0 0 0-.143 1.595v.007c-.007.245-.008.491-.012.737v18.491c.004.248.005.489.012.738.007.571.059 1.124.152 1.663l-.009-.062c.097.571.271 1.082.514 1.553l-.014-.029c.255.497.57.923.942 1.291l.001.001c.369.373.797.687 1.267.93l.028.013c.44.229.95.405 1.488.5l.032.005c.477.083 1.031.134 1.596.141h.008c.247.005.49.009.735.009.293.002.582.002.876.002h80.48c.288 0 .58 0 .867-.002.244 0 .494-.003.738-.009a10.633 10.633 0 0 0 1.663-.15l-.063.009a5.416 5.416 0 0 0 1.557-.519l-.031.014a5.043 5.043 0 0 0 1.293-.943c.372-.369.687-.795.932-1.263l.013-.028c.227-.441.4-.953.491-1.492l.004-.031a10.4 10.4 0 0 0 .148-1.591v-.01c.003-.248.003-.489.003-.738.006-.291.006-.58.006-.875V7.631c0-.293 0-.584-.006-.873 0-.245 0-.491-.003-.737a10.878 10.878 0 0 0-.158-1.666l.009.064a5.28 5.28 0 0 0-.509-1.553l.014.03A5.207 5.207 0 0 0 92.867.67l-.029-.014a5.285 5.285 0 0 0-1.494-.497l-.032-.005a10.001 10.001 0 0 0-1.594-.141h-.006c-.244-.004-.494-.009-.738-.01-.288-.002-.58-.002-.867-.002z"/><path d="M6.756 31.3c-.244 0-.482-.003-.723-.009a10.135 10.135 0 0 1-1.555-.139l.059.008a4.69 4.69 0 0 1-1.352-.451l.026.012a4.338 4.338 0 0 1-1.117-.813 4.27 4.27 0 0 1-.805-1.093l-.011-.024a4.483 4.483 0 0 1-.431-1.299l-.004-.027a9.614 9.614 0 0 1-.133-1.493v-.007c-.005-.169-.012-.73-.012-.73V6.755s.007-.553.012-.716c.007-.534.055-1.052.141-1.556l-.008.059c.084-.498.235-.945.447-1.356l-.012.026a4.47 4.47 0 0 1 1.909-1.924l.025-.012A4.558 4.558 0 0 1 4.507.845l.028-.004A9.75 9.75 0 0 1 6.029.71h.007L6.758.7l82.945.01c.53.006 1.044.054 1.545.138L91.19.84c.501.087.95.239 1.364.451l-.027-.012a4.506 4.506 0 0 1 1.92 1.911l.012.025a4.5 4.5 0 0 1 .424 1.292l.004.027c.078.447.129.968.139 1.5v.01c.002.227.002.47.002.712.006.3.006.586.006.873v16.743c0 .291 0 .574-.006.86 0 .26 0 .498-.003.744a10.31 10.31 0 0 1-.145 1.543l.009-.06c-.082.5-.233.949-.444 1.362l.012-.026a4.416 4.416 0 0 1-.812 1.108 4.377 4.377 0 0 1-1.095.807l-.024.011c-.386.2-.834.353-1.306.436l-.028.004a9.565 9.565 0 0 1-1.489.13h-.007c-.234.005-.48.009-.718.009l-.867.002z"/><path fill="#fff" d="M19.815 16.241a3.958 3.958 0 0 1 1.869-3.312l.017-.01a4.052 4.052 0 0 0-3.186-1.726h-.006c-1.343-.141-2.646.804-3.33.804-.698 0-1.752-.79-2.887-.767a4.252 4.252 0 0 0-3.567 2.161l-.011.021c-1.547 2.679-.393 6.616 1.089 8.781.742 1.06 1.608 2.245 2.742 2.203 1.11-.046 1.524-.708 2.864-.708 1.327 0 1.716.708 2.873.681 1.191-.019 1.941-1.065 2.656-2.135.506-.71.92-1.531 1.198-2.412l.017-.062a3.831 3.831 0 0 1-2.335-3.519zM17.63 9.769a3.876 3.876 0 0 0 .891-2.806l.001.014A3.967 3.967 0 0 0 15.96 8.3l-.004.004a3.692 3.692 0 0 0-.915 2.7l-.001-.011h.034c1.03 0 1.95-.475 2.551-1.218l.005-.006zM33.842 21.712h-3.787l-.909 2.685h-1.604l3.587-9.934h1.666l3.587 9.934h-1.631zm-3.395-1.239h3.002l-1.48-4.358h-.041zM44.128 20.776c0 2.251-1.205 3.697-3.023 3.697a2.454 2.454 0 0 1-2.272-1.255l-.006-.012h-.034v3.587h-1.487v-9.639h1.439v1.205h.027a2.573 2.573 0 0 1 2.31-1.281h-.004c1.838 0 3.05 1.453 3.05 3.698zm-1.528 0c0-1.466-.758-2.43-1.914-2.43-1.136 0-1.9.984-1.9 2.43 0 1.459.764 2.437 1.9 2.437 1.156 0 1.914-.957 1.914-2.437zM52.1 20.776c0 2.251-1.205 3.697-3.023 3.697a2.454 2.454 0 0 1-2.272-1.255l-.006-.012h-.034v3.587h-1.487v-9.639h1.439v1.205h.027a2.573 2.573 0 0 1 2.31-1.281h-.004c1.838 0 3.05 1.453 3.05 3.698zm-1.528 0c0-1.466-.758-2.43-1.914-2.43-1.136 0-1.9.984-1.9 2.43 0 1.459.764 2.437 1.9 2.437 1.156 0 1.914-.957 1.914-2.437zM57.368 21.629c.11.985 1.067 1.632 2.375 1.632 1.253 0 2.155-.647 2.155-1.535 0-.771-.544-1.233-1.831-1.549l-1.288-.31c-1.824-.441-2.671-1.294-2.671-2.678 0-1.714 1.494-2.891 3.615-2.891 2.099 0 3.538 1.177 3.587 2.891h-1.501c-.09-.991-.909-1.59-2.107-1.59s-2.017.605-2.017 1.487c0 .702.523 1.116 1.804 1.432l1.095.269c2.038.482 2.885 1.301 2.885 2.754 0 1.859-1.48 3.023-3.835 3.023-2.203 0-3.691-1.137-3.787-2.934zM66.677 15.44v1.714h1.377v1.177h-1.377v3.993c0 .62.276.909.881.909.176-.003.345-.016.512-.037l-.023.002v1.17a3.986 3.986 0 0 1-.75.069l-.08-.001h.004c-1.466 0-2.038-.551-2.038-1.955v-4.152H64.13v-1.177h1.053v-1.714zM68.852 20.776c0-2.279 1.342-3.711 3.435-3.711 2.1 0 3.436 1.432 3.436 3.711 0 2.285-1.329 3.711-3.436 3.711s-3.435-1.426-3.435-3.711zm5.356 0c0-1.563-.716-2.486-1.921-2.486s-1.92.93-1.92 2.486c0 1.57.716 2.485 1.92 2.485s1.921-.916 1.921-2.485zM76.949 17.154h1.418v1.233h.034a1.732 1.732 0 0 1 1.745-1.309h-.003.008c.178 0 .351.02.517.058l-.015-.003v1.391a2.022 2.022 0 0 0-.607-.091l-.064.001h.003l-.061-.001a1.498 1.498 0 0 0-1.488 1.675l-.001-.007v4.296h-1.487zM87.507 22.27c-.2 1.315-1.48 2.217-3.119 2.217-2.107 0-3.415-1.412-3.415-3.677 0-2.272 1.315-3.745 3.352-3.745 2.004 0 3.264 1.377 3.264 3.573v.509h-5.116v.09a1.886 1.886 0 0 0 1.879 2.052l.073-.001h-.004a1.64 1.64 0 0 0 1.669-1.008l.004-.011zm-5.025-2.162h3.621a1.742 1.742 0 0 0-1.739-1.839h-.039.002-.011a1.834 1.834 0 0 0-1.834 1.834v.005zM30.261 6.985a2.112 2.112 0 0 1 2.245 2.383l.001-.011c0 1.525-.824 2.402-2.246 2.402h-1.724V6.986zm-.983 4.098h.9a1.501 1.501 0 0 0 1.574-1.725l.001.008a1.505 1.505 0 0 0-1.578-1.707h.004-.9zM33.345 9.955a1.707 1.707 0 1 1 3.398.007l.001-.007a1.707 1.707 0 1 1-3.397-.008l-.001.007zm2.666 0c0-.781-.351-1.238-.966-1.238-.618 0-.966.457-.966 1.238 0 .787.348 1.24.966 1.24.616 0 .966-.456.966-1.24zM41.259 11.758h-.737l-.745-2.653h-.056l-.741 2.653h-.73l-.993-3.602h.721l.645 2.749h.053l.741-2.749h.682l.741 2.749h.056l.642-2.749h.711zM43.083 8.156h.684v.572h.053a1.08 1.08 0 0 1 1.079-.641h-.004a1.172 1.172 0 0 1 1.247 1.347l.001-.007v2.332h-.711V9.606c0-.579-.252-.867-.777-.867l-.038-.001a.826.826 0 0 0-.821.917v-.004 2.107h-.711zM47.275 6.75h.711v5.009h-.711zM48.974 9.955a1.707 1.707 0 1 1 3.398.007l.001-.007a1.707 1.707 0 1 1-3.397-.007l-.001.007zm2.667 0c0-.781-.351-1.238-.966-1.238-.618 0-.966.457-.966 1.238 0 .787.348 1.24.966 1.24.616 0 .966-.456.966-1.24zM53.121 10.739c0-.648.483-1.022 1.34-1.075l.976-.056v-.311c0-.38-.252-.595-.737-.595-.397 0-.672.146-.751.4h-.688c.073-.619.655-1.016 1.472-1.016.903 0 1.413.45 1.413 1.211v2.461h-.684v-.506h-.056a1.213 1.213 0 0 1-1.026.567l-.059-.001h.003a1.088 1.088 0 0 1-1.201-1.078zm2.315-.307v-.301l-.88.056c-.496.033-.721.202-.721.52 0 .324.281.513.668.513a.849.849 0 0 0 .933-.785v-.003zM57.079 9.955c0-1.138.585-1.859 1.495-1.859l.055-.001c.453 0 .847.254 1.047.627l.003.006h.053V6.749h.711v5.009h-.681v-.569h-.056c-.22.379-.623.629-1.085.629l-.048-.001h.002c-.916 0-1.495-.721-1.495-1.862zm.734 0c0 .764.36 1.224.962 1.224.599 0 .97-.466.97-1.221 0-.751-.374-1.224-.97-1.224-.598 0-.963.463-.963 1.221zM63.384 9.955a1.707 1.707 0 1 1 3.398.007l.001-.007a1.707 1.707 0 1 1-3.397-.008l-.001.007zm2.666 0c0-.781-.351-1.238-.966-1.238-.618 0-.966.457-.966 1.238 0 .787.348 1.24.966 1.24.616 0 .966-.456.966-1.24zM67.736 8.156h.684v.572h.053a1.08 1.08 0 0 1 1.079-.641h-.004a1.172 1.172 0 0 1 1.247 1.347l.001-.007v2.332h-.711V9.606c0-.579-.252-.867-.777-.867l-.038-.001a.826.826 0 0 0-.821.917v-.004 2.107h-.711zM74.812 7.259v.913h.78v.599h-.78v1.852c0 .377.155.543.509.543.096 0 .19-.006.283-.018l-.011.001v.592a2.181 2.181 0 0 1-.385.036h-.001c-.791 0-1.105-.278-1.105-.973V8.77h-.572v-.599h.572v-.913zM76.564 6.75h.705v1.985h.056a1.11 1.11 0 0 1 1.103-.645h-.004l.064-.002a1.187 1.187 0 0 1 1.176 1.351l.001-.006v2.326h-.712v-2.15c0-.575-.268-.867-.77-.867a.842.842 0 0 0-.907.917v-.003 2.104h-.711zM83.809 10.786a1.466 1.466 0 0 1-1.567 1.042l.007.001-.043.001a1.636 1.636 0 0 1-1.62-1.868l-.001.009a1.66 1.66 0 0 1 1.646-1.882h.015-.001c1.002 0 1.607.685 1.607 1.816v.248h-2.544v.04a.952.952 0 0 0 .949 1.032h.011-.001a.864.864 0 0 0 .855-.433l.002-.004zm-2.501-1.161h1.82l.002-.064a.869.869 0 0 0-.869-.869h-.021.001-.012a.92.92 0 0 0-.921.921v.013-.001z"/></symbol><symbol id="icon-google-play-ua" viewBox="0 0 108 32"><path d="M4 0h100a4 4 0 0 1 4 4v24a4 4 0 0 1-4 4H4a4 4 0 0 1-4-4V4a4 4 0 0 1 4-4z"/><path fill="#a6a6a6" style="fill:var(--color2,#a6a6a6)" d="M104 .64A3.36 3.36 0 0 1 107.36 4v24a3.36 3.36 0 0 1-3.36 3.36H4A3.36 3.36 0 0 1 .64 28V4A3.36 3.36 0 0 1 4 .64h100zm0-.64H4a4.013 4.013 0 0 0-4 3.999V28a4.013 4.013 0 0 0 3.999 4H104a4.013 4.013 0 0 0 4-3.999V4a4.013 4.013 0 0 0-3.999-4H104z"/><path fill="#fff" style="fill:var(--color3,#fff)" d="M54.509 17.402a3.403 3.403 0 1 0 3.414 3.402v-.049a3.354 3.354 0 0 0-3.354-3.354l-.065.001h.003zm0 5.464a2.068 2.068 0 1 1 1.92-2.063l.002.094a1.969 1.969 0 0 1-1.92 1.968h-.002zm-7.451-5.464a3.403 3.403 0 1 0 3.415 3.402v-.049a3.354 3.354 0 0 0-3.354-3.354l-.066.001h.003zm0 5.464a2.068 2.068 0 1 1 1.92-2.063l.002.094a1.969 1.969 0 0 1-1.92 1.968h-.002zm-8.863-4.42v1.44h3.454a3.01 3.01 0 0 1-.788 1.82l.002-.002a3.527 3.527 0 0 1-2.674 1.057h.007a3.84 3.84 0 1 1 0-7.68h.048c.994 0 1.896.394 2.558 1.034l-.001-.001 1.018-1.018a5.023 5.023 0 0 0-3.545-1.457l-.081.001h.004-.065a5.285 5.285 0 1 0 0 10.57h.069-.003a4.817 4.817 0 0 0 3.684-1.481l.002-.002a4.749 4.749 0 0 0 1.25-3.385v.008-.04c0-.305-.029-.602-.085-.891l.005.029zm36.247 1.12a3.172 3.172 0 0 0-2.908-2.165h-.005a3.234 3.234 0 0 0-3.208 3.412v-.008l-.001.073a3.33 3.33 0 0 0 3.33 3.33h.05-.002.019c1.17 0 2.201-.594 2.81-1.496l.008-.012-1.16-.773a1.948 1.948 0 0 1-1.666.941h-.01.001l-.066.001a1.732 1.732 0 0 1-1.58-1.021l-.004-.011 4.55-1.882zm-4.64 1.134a1.866 1.866 0 0 1 1.774-1.98h.004a1.32 1.32 0 0 1 1.26.712l.003.007zm-3.7 3.3H67.6V14h-1.498zm-2.448-5.84H63.6a2.354 2.354 0 0 0-1.735-.761l-.059.001h.003a3.406 3.406 0 0 0-.007 6.804h.007l.061.001c.687 0 1.303-.298 1.728-.772l.002-.002h.051v.489c0 1.302-.696 2-1.817 2a1.884 1.884 0 0 1-1.71-1.199l-.004-.013-1.302.542a3.248 3.248 0 0 0 2.999 2.01h.018-.001c1.753 0 3.235-1.031 3.235-3.544v-6.109h-1.416zm-1.714 4.705a2.07 2.07 0 0 1-.008-4.124l.008-.001a1.921 1.921 0 0 1 1.82 2.084l.001-.007a1.902 1.902 0 0 1-1.816 2.049h-.004zM81.445 14h-3.577v10h1.492v-3.789h2.085A3.11 3.11 0 1 0 81.437 14h.008zm.038 4.82H79.36v-3.429h2.16a1.714 1.714 0 0 1 0 3.428h-.039.002zm9.226-1.44a2.802 2.802 0 0 0-2.656 1.515l-.007.016 1.326.553a1.418 1.418 0 0 1 1.369-.733h-.005a1.44 1.44 0 0 1 1.569 1.281l.001.006v.102a3.261 3.261 0 0 0-1.549-.386h-.008c-1.428 0-2.88.785-2.88 2.251a2.312 2.312 0 0 0 2.488 2.2h-.008a2.104 2.104 0 0 0 1.9-.97l.005-.008h.051v.772h1.44v-3.83c.002-1.776-1.323-2.766-3.034-2.766zm-.181 5.481c-.489 0-1.17-.24-1.17-.849 0-.772.849-1.068 1.582-1.068l.066-.001c.475 0 .921.124 1.307.342l-.013-.007a1.813 1.813 0 0 1-1.771 1.586h-.001zm8.466-5.261-1.711 4.336h-.051L95.456 17.6h-1.608l2.663 6.06-1.52 3.371h1.557l4.106-9.431zM85.549 24h1.491V14h-1.493z"/><path fill="#fff" d="M8.348 6.03a1.592 1.592 0 0 0-.37 1.124V7.15v17.697a1.592 1.592 0 0 0 .372 1.122l-.002-.002.059.058 9.913-9.907v-.234L8.407 5.973zM21.622 19.423l-3.302-3.306v-.234l3.305-3.304.074.042 3.914 2.224c1.12.635 1.12 1.674 0 2.31l-3.914 2.225z"/><path fill="#fff" d="M21.698 19.38 18.32 16l-9.972 9.971c.228.202.53.325.861.325.304 0 .583-.104.805-.279l-.003.002 11.687-6.64z"/><path fill="#fff" d="m21.698 12.622-11.687-6.64a1.296 1.296 0 0 0-1.664.05l.001-.001 9.972 9.97z"/><path style="fill:var(--color1,#000)" opacity=".2" d="M21.623 19.306 10.01 25.904a1.332 1.332 0 0 1-1.604.007l.003.002-.06.06.059.058a1.325 1.325 0 0 0 1.603-.011l-.003.002 11.687-6.64z"/><path style="fill:var(--color1,#000)" opacity=".12" d="M8.348 25.854a1.592 1.592 0 0 1-.37-1.124V24.851a1.597 1.597 0 0 0 .372 1.127l-.002-.002.06-.06zM25.612 17.04l-3.989 2.266.074.074 3.914-2.224c.462-.204.788-.637.838-1.151v-.006a1.497 1.497 0 0 1-.829 1.036l-.009.004z"/><path fill="#fff" style="fill:var(--color3,#fff)" opacity=".25" d="m10.01 6.098 15.6 8.864c.424.196.735.572.838 1.028l.002.01a1.41 1.41 0 0 0-.829-1.152l-.009-.004-15.6-8.864c-1.12-.635-2.033-.107-2.033 1.174v.118c-.002-1.281.914-1.809 2.031-1.174z"/><path fill="#fff" style="fill:var(--color3,#fff)" d="M34.654 10.533a1.677 1.677 0 0 1-.944-.304l.005.004a1.561 1.561 0 0 1-.627-.885l-.002-.011.588-.246a1.2 1.2 0 0 0 .37.608l.001.001a.912.912 0 0 0 .592.217h.018-.001.02a.994.994 0 0 0 .656-.246l-.001.001a.774.774 0 0 0 .283-.598v-.012.001-.005a.757.757 0 0 0-.289-.596l-.002-.001a1.041 1.041 0 0 0-.672-.245h-.025.001-.414v-.602h.365l.032.001a.935.935 0 0 0 .593-.211l-.002.001a.698.698 0 0 0 .249-.533l-.001-.028v.001l.001-.027a.621.621 0 0 0-.239-.49l-.001-.001a.94.94 0 0 0-.568-.189l-.032.001h.002l-.033-.001a.824.824 0 0 0-.798.618l-.001.006-.596-.252a1.64 1.64 0 0 1 .494-.684l.003-.002c.236-.189.539-.303.869-.303l.069.002h-.003l.054-.001c.389 0 .745.142 1.019.377l-.002-.002c.262.223.428.553.428.921v.029-.001l.001.033c0 .44-.26.819-.634.993l-.007.003v.028c.235.098.43.252.575.444l.003.004c.142.19.227.429.227.688v.027-.001.031c0 .408-.181.774-.467 1.022l-.002.001a1.665 1.665 0 0 1-1.105.417l-.049-.001h.002zM36.67 10.421l1.89-5.012h.728l1.89 5.012h-.714l-.48-1.36h-2.11l-.491 1.36zm1.42-1.96h1.67L38.938 6.2h-.028zM41.824 10.421V5.409h1.837c.384 0 .734.148.996.39l-.001-.001c.265.231.431.569.431.946v.031-.002.02c0 .227-.069.439-.187.614l.002-.004c-.123.18-.29.321-.486.41l-.007.003v.028c.248.084.456.235.607.431l.002.003c.15.19.24.433.24.697v.018-.001.025c0 .398-.176.754-.455.996l-.002.001a1.543 1.543 0 0 1-1.046.406h-.023.001zm.64-2.863h1.17l.032.001a.752.752 0 0 0 .552-.24.748.748 0 0 0 .007-1.055.717.717 0 0 0-.537-.24h-.024.001-1.2zm0 2.247h1.322c.229 0 .434-.1.575-.259l.001-.001a.825.825 0 0 0 .23-.566v-.001a.841.841 0 0 0-.841-.819h-1.283zM45.575 10.421l1.89-5.012h.728l1.887 5.012h-.714l-.48-1.36h-2.107l-.491 1.36zm1.42-1.96h1.666L47.839 6.2h-.028zM50.73 10.421V5.409h.64v2.149h2.506V5.409h.64v5.012h-.64V8.16h-2.502v2.261zM57.258 10.421h-.644V6.025h-1.4v-.616h3.444v.616h-1.4zM58.487 10.421l1.89-5.012h.728l1.89 5.012h-.714l-.48-1.36h-2.11l-.491 1.36zm1.421-1.96h1.666L60.755 6.2h-.028zM66.842 8.125v2.296h-.644V8.125h-.028l-1.946 2.296h-.84v-.028l2.114-2.422-2.03-2.53V5.41h.784l1.92 2.436h.028V5.41h.644v2.436h.028l1.92-2.436h.785v.031l-2.034 2.53 2.114 2.422v.028h-.84l-1.946-2.296zM74.133 5.409v5.012h-.64v-3.12l.027-.968h-.028l-2.548 4.088h-.672V5.409h.644v2.933l-.028.966h.028l2.436-3.899zM76.867 10.421h-.644V6.025h-1.4v-.616h3.444v.616h-1.4zM82.845 5.409v5.012h-.64v-3.12l.028-.966h-.028l-2.549 4.088h-.672V5.409h.644v2.933l-.028.966h.027l2.437-3.899zM86.71 10.533a1.677 1.677 0 0 1-.944-.304l.005.004a1.557 1.557 0 0 1-.627-.885l-.002-.011.587-.246a1.2 1.2 0 0 0 .37.608l.001.001a.913.913 0 0 0 .593.217h.017-.001.02a.994.994 0 0 0 .656-.246l-.001.001a.77.77 0 0 0 .284-.598v-.012.001-.005a.757.757 0 0 0-.289-.596l-.002-.001a1.045 1.045 0 0 0-.674-.245h-.025.001-.413v-.602h.364l.035.001a.928.928 0 0 0 .593-.212l-.002.001a.695.695 0 0 0 .249-.534l-.001-.028v.001l.001-.027a.624.624 0 0 0-.239-.491l-.001-.001a.938.938 0 0 0-.567-.189l-.033.001h.002l-.033-.001a.824.824 0 0 0-.798.618l-.001.006-.595-.252c.106-.276.277-.508.494-.684l.003-.002c.236-.188.538-.302.867-.302l.067.002h-.003l.053-.001c.39 0 .746.142 1.02.377l-.002-.002c.262.223.427.553.427.921v.029-.001.031c0 .441-.261.822-.638.995l-.007.003v.028c.235.098.43.252.575.445l.003.004c.142.19.227.429.227.688v.027-.001.032c0 .408-.181.774-.467 1.021l-.002.001a1.66 1.66 0 0 1-1.103.417l-.048-.001h.002z"/></symbol><symbol id="icon-Flag_of_Ukraine" viewBox="0 0 48 32"><path fill="#005bbb" style="fill:var(--color1,#005bbb)" d="M0 0h48v32H0V0z"/><path fill="#ffd500" style="fill:var(--color2,#ffd500)" d="M0 16h48v16H0V16z"/><path fill="#ffd500" style="fill:var(--color2,#ffd500)" d="M17.4 6.523v13.902c.001.94.55 1.837 1.473 2.242L24 24.922l5.127-2.255a2.454 2.454 0 0 0 1.473-2.242V6.523z"/><path fill="#005bbb" style="fill:var(--color1,#005bbb)" d="M17.6 6.723v13.6c.001.92.534 1.797 1.428 2.194L24 24.723l4.972-2.206a2.402 2.402 0 0 0 1.428-2.194v-13.6z"/><path fill="#ffd500" style="fill:var(--color2,#ffd500)" d="M24 7.723c-.373.423-.6.977-.6 1.585.022 1.335.186 2.667.2 4.001.03 1.243-.343 2.411-.797 3.551-.151.315-.315.623-.478.931l-.481-.097a.8.8 0 0 1 .153-1.585l.175.019-.391-3.263A4.995 4.995 0 0 0 19.2 8.92v11.59h2.675a4.404 4.404 0 0 0 1.637 2.682c.2.138.367.319.488.531.12-.212.288-.394.488-.531a4.395 4.395 0 0 0 1.637-2.682H28.8V8.92a4.991 4.991 0 0 0-2.581 3.945l-.391 3.263.175-.019a.8.8 0 0 1 .153 1.585l-.481.097a25.524 25.524 0 0 1-.478-.931c-.454-1.139-.826-2.307-.797-3.551.014-1.334.178-2.666.2-4.001 0-.608-.227-1.162-.6-1.585zm-4 2.867c.518.608.865 1.365.969 2.197l.322 2.691c-.41.204-.721.578-.837 1.031h-.453zm8 0v5.92h-.453a1.604 1.604 0 0 0-.837-1.031l.322-2.691a4.18 4.18 0 0 1 .969-2.197zM24 16c.215.703.511 1.371.878 1.991-.35.106-.654.313-.878.591a1.797 1.797 0 0 0-.878-.591A9.13 9.13 0 0 0 24 16zm-4 1.31h.453c.143.552.574.989 1.122 1.141l.384.088a4.398 4.398 0 0 0-.159 1.172H20zm7.547 0H28v2.4h-1.8c0-.406-.056-.799-.159-1.172l.384-.088a1.606 1.606 0 0 0 1.122-1.141zm-4.806 1.412a.998.998 0 0 1 .859.988h-1c0-.343.051-.674.141-.988zm2.518 0c.09.314.141.645.141.988h-1a1 1 0 0 1 .859-.988zm-2.568 1.788h.909v1.685a3.6 3.6 0 0 1-.909-1.685zm1.709 0h.909a3.604 3.604 0 0 1-.909 1.685z"/></symbol></defs></svg>